<svg width="24" height="18" viewBox="0 0 24 18" fill="none" xmlns="http://www.w3.org/2000/svg">
<path d="M1 0H11L10 2H6.74C7.22 2.58 7.58 3.26 7.79 4H11L10 6H8C7.87607 7.24675 7.33454 8.41506 6.46325 9.3154C5.59195 10.2157 4.44202 10.7953 3.2 10.96V11H2.5L8.5 18H6L0 11V9H2.5C4.26 9 5.72 7.7 5.96 6H0L1 4H5.66C5.1 2.82 3.9 2 2.5 2H0L1 0Z" fill="#9D9D9D"/>
<path d="M23.3205 9.70834H20.7495V12.257C20.7495 12.6673 20.4139 13 20 13C19.5861 13 19.2505 12.6673 19.2505 12.257V9.70834H16.6795C16.2934 9.6687 16 9.34614 16 8.96132C16 8.5765 16.2934 8.25394 16.6795 8.21431H19.2424V5.67365C19.2824 5.29088 19.6078 5 19.996 5C20.3842 5 20.7095 5.29088 20.7495 5.67365V8.21431H23.3205C23.7066 8.25394 24 8.5765 24 8.96132C24 9.34614 23.7066 9.6687 23.3205 9.70834V9.70834Z" fill="#130F26"/>
</svg>
