<svg width="21" height="20" viewBox="0 0 21 20" fill="none" xmlns="http://www.w3.org/2000/svg">
<path d="M9.175 10.9385L7.775 9.5135C7.575 9.3135 7.33767 9.2135 7.063 9.2135C6.78767 9.2135 6.55 9.3135 6.35 9.5135C6.15 9.7135 6.05 9.95517 6.05 10.2385C6.05 10.5218 6.14167 10.7552 6.325 10.9385L8.475 13.0885C8.675 13.2885 8.90833 13.3885 9.175 13.3885C9.44167 13.3885 9.675 13.2885 9.875 13.0885L14.125 8.8635C14.325 8.6635 14.425 8.42583 14.425 8.1505C14.425 7.87583 14.325 7.6385 14.125 7.4385C13.925 7.2385 13.6833 7.1385 13.4 7.1385C13.1167 7.1385 12.8833 7.23017 12.7 7.4135L9.175 10.9385ZM10.225 19.2385C8.975 19.2385 7.80433 19.0012 6.713 18.5265C5.621 18.0512 4.671 17.4092 3.863 16.6005C3.05433 15.7925 2.41233 14.8425 1.937 13.7505C1.46233 12.6592 1.225 11.4885 1.225 10.2385C1.225 8.9885 1.46233 7.8175 1.937 6.7255C2.41233 5.63417 3.05433 4.68417 3.863 3.8755C4.671 3.0675 5.621 2.42617 6.713 1.9515C7.80433 1.47617 8.975 1.2385 10.225 1.2385C11.475 1.2385 12.646 1.47617 13.738 1.9515C14.8293 2.42617 15.7793 3.0675 16.588 3.8755C17.396 4.68417 18.0377 5.63417 18.513 6.7255C18.9877 7.8175 19.225 8.9885 19.225 10.2385C19.225 11.4885 18.9877 12.6592 18.513 13.7505C18.0377 14.8425 17.396 15.7925 16.588 16.6005C15.7793 17.4092 14.8293 18.0512 13.738 18.5265C12.646 19.0012 11.475 19.2385 10.225 19.2385ZM1.65 4.5635C1.46667 4.74683 1.23767 4.83417 0.963 4.8255C0.687667 4.8175 0.458333 4.72184 0.275 4.5385C0.0916666 4.35517 0 4.12183 0 3.8385C0 3.55517 0.0916666 3.32183 0.275 3.1385L3.15 0.263502C3.33333 0.0801684 3.56267 -0.00749826 3.838 0.000501742C4.11267 0.00916841 4.34167 0.105168 4.525 0.288502C4.70833 0.471835 4.8 0.705168 4.8 0.988502C4.8 1.27183 4.70833 1.50517 4.525 1.6885L1.65 4.5635ZM18.775 4.5385L15.9 1.6635C15.7167 1.48017 15.6293 1.25084 15.638 0.975502C15.646 0.700835 15.7417 0.471835 15.925 0.288502C16.1083 0.105168 16.3417 0.0135018 16.625 0.0135018C16.9083 0.0135018 17.1417 0.105168 17.325 0.288502L20.2 3.1635C20.3833 3.34684 20.471 3.57583 20.463 3.8505C20.4543 4.12583 20.3583 4.35517 20.175 4.5385C19.9917 4.72184 19.7583 4.8135 19.475 4.8135C19.1917 4.8135 18.9583 4.72184 18.775 4.5385ZM10.225 17.2385C12.175 17.2385 13.829 16.5592 15.187 15.2005C16.5457 13.8425 17.225 12.1885 17.225 10.2385C17.225 8.2885 16.5457 6.63417 15.187 5.2755C13.829 3.9175 12.175 3.2385 10.225 3.2385C8.275 3.2385 6.621 3.9175 5.263 5.2755C3.90433 6.63417 3.225 8.2885 3.225 10.2385C3.225 12.1885 3.90433 13.8425 5.263 15.2005C6.621 16.5592 8.275 17.2385 10.225 17.2385Z" fill="#130F26"/>
</svg>
