<svg width="25" height="21" viewBox="0 0 25 21" fill="none" xmlns="http://www.w3.org/2000/svg">
<path d="M23.828 7.7685C23.683 7.7691 23.5397 7.73653 23.4091 7.6733L12.4037 2.05637L1.39836 7.63522C1.16355 7.74632 0.894213 7.75958 0.649615 7.6721C0.405017 7.58461 0.205189 7.40355 0.0940928 7.16873C-0.0170037 6.93391 -0.0302689 6.66458 0.0572152 6.41998C0.144699 6.17538 0.325766 5.97556 0.560584 5.86446L12.4037 0L24.2469 5.86446C24.4965 5.92278 24.7132 6.07709 24.8499 6.29397C24.9866 6.51086 25.0323 6.77285 24.9772 7.02323C24.9221 7.27361 24.7707 7.49221 24.5556 7.6317C24.3405 7.77119 24.0791 7.82034 23.828 7.7685Z" fill="#130F26"/>
<path d="M9.72222 8H16.9444L16.2222 9.44444H13.8678C14.2144 9.86333 14.4744 10.3544 14.6261 10.8889H16.9444L16.2222 12.3333H14.7778C14.6883 13.2338 14.2972 14.0775 13.6679 14.7278C13.0386 15.378 12.2081 15.7966 11.3111 15.9156V15.9444H10.8056L15.1389 21H13.3333L9 15.9444V14.5H10.8056C12.0767 14.5 13.1311 13.5611 13.3044 12.3333H9L9.72222 10.8889H13.0878C12.6833 10.0367 11.8167 9.44444 10.8056 9.44444H9L9.72222 8Z" fill="#130F26"/>
<line x1="2" y1="7" x2="2" y2="21" stroke="#130F26" stroke-width="2"/>
<line x1="23" y1="7" x2="23" y2="21" stroke="#130F26" stroke-width="2"/>
</svg>
