<svg width="16" height="16" viewBox="0 0 16 16" fill="none" xmlns="http://www.w3.org/2000/svg">
<path d="M9.72065 9H12.557L12.2734 9.56727H11.3487C11.4849 9.73178 11.587 9.92465 11.6465 10.1345H12.557L12.2734 10.7018H11.7061C11.671 11.0554 11.5174 11.3868 11.2702 11.6422C11.0231 11.8975 10.6969 12.0619 10.3446 12.1087V12.12H10.1461L11.8479 14.1055H11.1388L9.43701 12.12V11.5527H10.1461C10.6453 11.5527 11.0594 11.184 11.1275 10.7018H9.43701L9.72065 10.1345H11.0424C10.8836 9.79985 10.5432 9.56727 10.1461 9.56727H9.43701L9.72065 9Z" fill="#130F26"/>
<path fill-rule="evenodd" clip-rule="evenodd" d="M11 15C12.0609 15 13.0783 14.5786 13.8284 13.8284C14.5786 13.0783 15 12.0609 15 11C15 9.93913 14.5786 8.92172 13.8284 8.17157C13.0783 7.42143 12.0609 7 11 7C9.93913 7 8.92172 7.42143 8.17157 8.17157C7.42143 8.92172 7 9.93913 7 11C7 12.0609 7.42143 13.0783 8.17157 13.8284C8.92172 14.5786 9.93913 15 11 15V15ZM16 11C16 12.3261 15.4732 13.5979 14.5355 14.5355C13.5979 15.4732 12.3261 16 11 16C9.67392 16 8.40215 15.4732 7.46447 14.5355C6.52678 13.5979 6 12.3261 6 11C6 9.67392 6.52678 8.40215 7.46447 7.46447C8.40215 6.52678 9.67392 6 11 6C12.3261 6 13.5979 6.52678 14.5355 7.46447C15.4732 8.40215 16 9.67392 16 11V11Z" fill="#130F26"/>
<path d="M1 0C0.734784 0 0.48043 0.105357 0.292893 0.292893C0.105357 0.48043 0 0.734784 0 1L0 9C0 9.26522 0.105357 9.51957 0.292893 9.70711C0.48043 9.89464 0.734784 10 1 10H5.083C5.141 9.656 5.228 9.322 5.341 9H3C3 8.46957 2.78929 7.96086 2.41421 7.58579C2.03914 7.21071 1.53043 7 1 7V3C1.53043 3 2.03914 2.78929 2.41421 2.41421C2.78929 2.03914 3 1.53043 3 1H13C13 1.53043 13.2107 2.03914 13.5858 2.41421C13.9609 2.78929 14.4696 3 15 3V6.528C15.38 6.868 15.717 7.256 16 7.682V1C16 0.734784 15.8946 0.48043 15.7071 0.292893C15.5196 0.105357 15.2652 0 15 0L1 0Z" fill="#130F26"/>
<path d="M9.998 5.08303L10 5.00003C9.9998 4.65562 9.91066 4.3171 9.74121 4.01726C9.57177 3.71742 9.32777 3.46641 9.03284 3.28855C8.73791 3.11069 8.40205 3.01201 8.05778 3.00206C7.71352 2.99211 7.37252 3.07123 7.06781 3.23175C6.7631 3.39228 6.50501 3.62877 6.31853 3.91833C6.13205 4.20789 6.02351 4.54069 6.00341 4.88451C5.98331 5.22834 6.05234 5.57152 6.20381 5.88083C6.35529 6.19014 6.58407 6.4551 6.868 6.65003C7.73176 5.8273 8.82177 5.2816 9.998 5.08303V5.08303Z" fill="#130F26"/>
</svg>
