<svg width="15" height="15" viewBox="0 0 15 15" fill="none" xmlns="http://www.w3.org/2000/svg">
<path d="M0.5 0C0.367392 0 0.240215 0.0526784 0.146447 0.146447C0.0526784 0.240215 0 0.367392 0 0.5C0 0.632608 0.0526784 0.759785 0.146447 0.853553C0.240215 0.947322 0.367392 1 0.5 1H1.61L2.011 2.607L3.509 10.592C3.53045 10.7066 3.59126 10.8101 3.68091 10.8846C3.77057 10.9591 3.88343 10.9999 4 11H5C4.46957 11 3.96086 11.2107 3.58579 11.5858C3.21071 11.9609 3 12.4696 3 13C3 13.5304 3.21071 14.0391 3.58579 14.4142C3.96086 14.7893 4.46957 15 5 15C5.53043 15 6.03914 14.7893 6.41421 14.4142C6.78929 14.0391 7 13.5304 7 13C7 12.4696 6.78929 11.9609 6.41421 11.5858C6.03914 11.2107 5.53043 11 5 11H12C11.4696 11 10.9609 11.2107 10.5858 11.5858C10.2107 11.9609 10 12.4696 10 13C10 13.5304 10.2107 14.0391 10.5858 14.4142C10.9609 14.7893 11.4696 15 12 15C12.5304 15 13.0391 14.7893 13.4142 14.4142C13.7893 14.0391 14 13.5304 14 13C14 12.4696 13.7893 11.9609 13.4142 11.5858C13.0391 11.2107 12.5304 11 12 11H13C13.1166 10.9999 13.2294 10.9591 13.3191 10.8846C13.4087 10.8101 13.4696 10.7066 13.491 10.592L14.991 2.592C15.0045 2.51984 15.002 2.44558 14.9835 2.37452C14.9651 2.30345 14.9313 2.23731 14.8844 2.1808C14.8375 2.12429 14.7788 2.0788 14.7124 2.04755C14.6459 2.0163 14.5734 2.00007 14.5 2H2.89L2.485 0.379C2.45801 0.270784 2.39561 0.174699 2.30773 0.106025C2.21985 0.0373507 2.11153 3.08115e-05 2 0H0.5ZM6 13C6 13.2652 5.89464 13.5196 5.70711 13.7071C5.51957 13.8946 5.26522 14 5 14C4.73478 14 4.48043 13.8946 4.29289 13.7071C4.10536 13.5196 4 13.2652 4 13C4 12.7348 4.10536 12.4804 4.29289 12.2929C4.48043 12.1054 4.73478 12 5 12C5.26522 12 5.51957 12.1054 5.70711 12.2929C5.89464 12.4804 6 12.7348 6 13V13ZM13 13C13 13.2652 12.8946 13.5196 12.7071 13.7071C12.5196 13.8946 12.2652 14 12 14C11.7348 14 11.4804 13.8946 11.2929 13.7071C11.1054 13.5196 11 13.2652 11 13C11 12.7348 11.1054 12.4804 11.2929 12.2929C11.4804 12.1054 11.7348 12 12 12C12.2652 12 12.5196 12.1054 12.7071 12.2929C12.8946 12.4804 13 12.7348 13 13V13ZM11.354 5.354L8.354 8.354C8.30755 8.40056 8.25238 8.43751 8.19163 8.46271C8.13089 8.48792 8.06577 8.50089 8 8.50089C7.93423 8.50089 7.86911 8.48792 7.80837 8.46271C7.74762 8.43751 7.69245 8.40056 7.646 8.354L6.146 6.854C6.09951 6.80751 6.06264 6.75232 6.03748 6.69158C6.01232 6.63084 5.99937 6.56574 5.99937 6.5C5.99937 6.43426 6.01232 6.36916 6.03748 6.30842C6.06264 6.24768 6.09951 6.19249 6.146 6.146C6.19249 6.09951 6.24768 6.06264 6.30842 6.03748C6.36916 6.01232 6.43426 5.99937 6.5 5.99937C6.56574 5.99937 6.63084 6.01232 6.69158 6.03748C6.75232 6.06264 6.80751 6.09951 6.854 6.146L8 7.293L10.646 4.646C10.6925 4.59951 10.7477 4.56264 10.8084 4.53748C10.8692 4.51232 10.9343 4.49937 11 4.49937C11.0657 4.49937 11.1308 4.51232 11.1916 4.53748C11.2523 4.56264 11.3075 4.59951 11.354 4.646C11.4005 4.69249 11.4374 4.74768 11.4625 4.80842C11.4877 4.86916 11.5006 4.93426 11.5006 5C11.5006 5.06574 11.4877 5.13084 11.4625 5.19158C11.4374 5.25232 11.4005 5.30751 11.354 5.354V5.354Z" fill="#130F26"/>
</svg>
