<svg width="25" height="16" viewBox="0 0 25 16" fill="none" xmlns="http://www.w3.org/2000/svg">
<path d="M17 12L23 3" stroke="#130F26" stroke-linecap="round" stroke-linejoin="round"/>
<path d="M17.5 6C18.3284 6 19 5.32843 19 4.5C19 3.67157 18.3284 3 17.5 3C16.6716 3 16 3.67157 16 4.5C16 5.32843 16.6716 6 17.5 6Z" stroke="#130F26" stroke-linecap="round" stroke-linejoin="round"/>
<path d="M22.4996 12C23.3281 12 23.9996 11.3284 23.9996 10.5C23.9996 9.67157 23.3281 9 22.4996 9C21.6712 9 20.9996 9.67157 20.9996 10.5C20.9996 11.3284 21.6712 12 22.4996 12Z" stroke="#130F26" stroke-linecap="round" stroke-linejoin="round"/>
<path d="M5.5 1.1C6.0439 1.1 6.57558 1.26128 7.02782 1.56346C7.48005 1.86563 7.83253 2.29512 8.04067 2.79762C8.24881 3.30012 8.30327 3.85305 8.19716 4.3865C8.09105 4.91995 7.82914 5.40995 7.44454 5.79454C7.05995 6.17914 6.56995 6.44105 6.0365 6.54716C5.50305 6.65327 4.95012 6.59881 4.44762 6.39067C3.94512 6.18253 3.51563 5.83005 3.21346 5.37782C2.91128 4.92558 2.75 4.3939 2.75 3.85C2.75 3.12065 3.03973 2.42118 3.55546 1.90546C4.07118 1.38973 4.77065 1.1 5.5 1.1ZM5.5 0C4.73854 0 3.99418 0.225799 3.36105 0.648842C2.72793 1.07189 2.23446 1.67317 1.94306 2.37667C1.65167 3.08016 1.57542 3.85427 1.72398 4.6011C1.87253 5.34792 2.23921 6.03393 2.77764 6.57236C3.31607 7.11079 4.00208 7.47747 4.7489 7.62602C5.49573 7.77458 6.26984 7.69833 6.97333 7.40694C7.67683 7.11554 8.27811 6.62207 8.70116 5.98895C9.1242 5.35582 9.35 4.61146 9.35 3.85C9.35 2.82892 8.94438 1.84965 8.22236 1.12764C7.50035 0.405624 6.52108 0 5.5 0ZM11 15.4H9.9V12.65C9.9 11.9207 9.61027 11.2212 9.09454 10.7055C8.57882 10.1897 7.87935 9.9 7.15 9.9H3.85C3.12065 9.9 2.42118 10.1897 1.90546 10.7055C1.38973 11.2212 1.1 11.9207 1.1 12.65V15.4H0V12.65C0 11.6289 0.405624 10.6497 1.12764 9.92764C1.84965 9.20562 2.82892 8.8 3.85 8.8H7.15C8.17108 8.8 9.15035 9.20562 9.87236 9.92764C10.5944 10.6497 11 11.6289 11 12.65V15.4Z" fill="#9D9D9D"/>
</svg>
