<svg width="24" height="24" viewBox="0 0 24 24" fill="none" xmlns="http://www.w3.org/2000/svg">
<path d="M20.7273 7.27723H17.4545V3H2.18182C0.981818 3 0 3.96238 0 5.13861V16.901H2.18182C2.18182 18.676 3.64364 20.1089 5.45455 20.1089C7.26545 20.1089 8.72727 18.676 8.72727 16.901H15.2727C15.2727 18.676 16.7345 20.1089 18.5455 20.1089C20.3564 20.1089 21.8182 18.676 21.8182 16.901H24V11.5545L20.7273 7.27723ZM20.1818 8.88119L22.32 11.5545H17.4545V8.88119H20.1818ZM5.45455 17.9703C4.85455 17.9703 4.36364 17.4891 4.36364 16.901C4.36364 16.3129 4.85455 15.8317 5.45455 15.8317C6.05455 15.8317 6.54545 16.3129 6.54545 16.901C6.54545 17.4891 6.05455 17.9703 5.45455 17.9703ZM7.87636 14.7624C7.27636 14.1101 6.42545 13.6931 5.45455 13.6931C4.48364 13.6931 3.63273 14.1101 3.03273 14.7624H2.18182V5.13861H15.2727V14.7624H7.87636ZM18.5455 17.9703C17.9455 17.9703 17.4545 17.4891 17.4545 16.901C17.4545 16.3129 17.9455 15.8317 18.5455 15.8317C19.1455 15.8317 19.6364 16.3129 19.6364 16.901C19.6364 17.4891 19.1455 17.9703 18.5455 17.9703Z" fill="#130F26"/>
</svg>
