<svg width="18" height="18" viewBox="0 0 18 18" fill="none" xmlns="http://www.w3.org/2000/svg">
<path opacity="0.4" d="M16.9926 15.9531H11.2983C10.7428 15.9531 10.2909 16.4121 10.2909 16.9765C10.2909 17.5419 10.7428 17.9999 11.2983 17.9999H16.9926C17.5482 17.9999 18 17.5419 18 16.9765C18 16.4121 17.5482 15.9531 16.9926 15.9531" fill="#130F26"/>
<path d="M7.30902 3.90361L12.7049 8.2637C12.835 8.36797 12.8573 8.55932 12.7557 8.69261L6.35874 17.028C5.95662 17.5429 5.36402 17.8342 4.72908 17.8449L1.23696 17.8879C1.05071 17.8901 0.887748 17.7611 0.845419 17.5762L0.0517547 14.1255C-0.0858138 13.4913 0.0517547 12.8356 0.453878 12.3303L6.88256 3.95521C6.98627 3.82083 7.1778 3.79719 7.30902 3.90361" fill="#130F26"/>
<path opacity="0.4" d="M15.1206 5.66544L14.0804 6.96401C13.9756 7.09623 13.7872 7.11773 13.6571 7.01238C12.3925 5.98901 9.15436 3.36285 8.25593 2.63509C8.12471 2.52759 8.10672 2.33625 8.21254 2.20295L9.21574 0.957057C10.1258 -0.214663 11.7131 -0.322161 12.9936 0.699064L14.4645 1.87078C15.0677 2.34377 15.4698 2.96726 15.6074 3.62299C15.7661 4.3443 15.5968 5.0527 15.1206 5.66544" fill="#130F26"/>
</svg>
