<svg width="20" height="20" viewBox="0 0 20 20" fill="none" xmlns="http://www.w3.org/2000/svg">
<path d="M17.8718 0H2.12819C0.952381 0 0 0.982113 0 2.19332V3.7577C0 4.31451 0.204891 4.85117 0.574517 5.25738L6.55238 11.832C6.66564 11.9561 6.82317 12.0272 6.98893 12.0272L12.4355 12.0441C12.5931 12.0452 12.7454 11.9816 12.8577 11.867L19.3627 5.28708C19.7704 4.87557 20 4.31133 20 3.72376V2.19225C20 0.981053 19.0476 0 17.8718 0" fill="#130F26"/>
<path d="M12.1349 13.8391L7.28033 13.8242C6.9766 13.8232 6.72949 14.0766 6.72949 14.3895V19.2046C6.72949 19.4751 6.86334 19.7275 7.0847 19.8739C7.21135 19.9577 7.35652 20.0001 7.50169 20.0001C7.61083 20.0001 7.71997 19.9767 7.82293 19.929L12.2296 17.8598C12.5056 17.7293 12.6826 17.4472 12.6826 17.1354V14.4044C12.6826 14.0936 12.4376 13.8401 12.1349 13.8391" fill="#130F26"/>
</svg>
