<svg width="26" height="26" viewBox="0 0 26 26" fill="none" xmlns="http://www.w3.org/2000/svg">
<path d="M18.6724 2.42581C13.372 -0.41695 6.898 1.13398 3.4 5.80834V2.80965C3.4 2.65059 3.33679 2.49804 3.22426 2.38557C3.11174 2.27309 2.95913 2.20991 2.8 2.20991C2.64087 2.20991 2.48826 2.27309 2.37574 2.38557C2.26321 2.49804 2.2 2.65059 2.2 2.80965V7.60756C2.2 7.76662 2.26321 7.91917 2.37574 8.03164C2.48826 8.14411 2.64087 8.2073 2.8 8.2073H7.6C7.75913 8.2073 7.91174 8.14411 8.02426 8.03164C8.13679 7.91917 8.2 7.76662 8.2 7.60756C8.2 7.4485 8.13679 7.29595 8.02426 7.18348C7.91174 7.07101 7.75913 7.00782 7.6 7.00782H4.0264C5.00143 5.54041 6.3226 4.33525 7.87346 3.49855C9.42433 2.66185 11.1573 2.21931 12.9196 2.20991C15.0478 2.20186 17.1307 2.82482 18.9047 4.00002C20.6787 5.17521 22.0643 6.84986 22.8861 8.81218C23.7079 10.7745 23.9291 12.9363 23.5218 15.0243C23.1144 17.1123 22.0967 19.0327 20.5975 20.5425C19.0982 22.0524 17.1847 23.0839 15.0989 23.5067C13.0131 23.9295 10.8487 23.7245 8.87943 22.9178C6.91017 22.111 5.22449 20.7386 4.03556 18.9742C2.84663 17.2097 2.20785 15.1325 2.2 13.0052C2.2 12.8133 2.2 12.631 2.2108 12.4391C2.21533 12.3586 2.2036 12.2781 2.17631 12.2023C2.14902 12.1265 2.10673 12.0569 2.05196 11.9978C1.99719 11.9387 1.93107 11.8912 1.85754 11.8582C1.78401 11.8252 1.70458 11.8074 1.624 11.8057C1.3 11.7937 1.024 12.0456 1.012 12.3719C1 12.5878 1 12.7893 1 13.0052C1.0072 19.6263 6.376 24.9928 13 25C15.1695 24.9989 17.2981 24.4102 19.1596 23.2965C21.0211 22.1828 22.5459 20.5858 23.572 18.6751C26.7088 12.8361 24.5152 5.56125 18.6724 2.42581V2.42581ZM13 8.2073C12.8409 8.2073 12.6883 8.27049 12.5757 8.38296C12.4632 8.49543 12.4 8.64798 12.4 8.80704V13.0052C12.4 13.1643 12.4632 13.3168 12.5757 13.4293C12.6883 13.5418 12.8409 13.605 13 13.605H16C16.1591 13.605 16.3117 13.5418 16.4243 13.4293C16.5368 13.3168 16.6 13.1643 16.6 13.0052C16.6 12.8462 16.5368 12.6936 16.4243 12.5811C16.3117 12.4687 16.1591 12.4055 16 12.4055H13.6V8.80704C13.6 8.64798 13.5368 8.49543 13.4243 8.38296C13.3117 8.27049 13.1591 8.2073 13 8.2073Z" fill="#130F26" stroke="#130F26"/>
</svg>
