<svg width="24" height="14" viewBox="0 0 24 14" fill="none" xmlns="http://www.w3.org/2000/svg">
<path d="M24 6.5C24 9.5382 21.5377 12 18.5 12C15.4624 12 13 9.5382 13 6.5C13 3.4629 15.4624 1 18.5 1C21.5377 1 24 3.4629 24 6.5" fill="#130F26"/>
<path opacity="0.89" d="M20.4655 8.59798C20.3935 8.59798 20.3209 8.57928 20.2543 8.54023L18.095 7.25213C17.9707 7.17733 17.8943 7.04258 17.8943 6.89738V4.12153C17.8943 3.89383 18.0791 3.70903 18.3068 3.70903C18.5345 3.70903 18.7193 3.89383 18.7193 4.12153V6.66308L20.6773 7.83073C20.8725 7.94788 20.9369 8.20088 20.8203 8.39668C20.7427 8.52593 20.6058 8.59798 20.4655 8.59798" fill="#E5E5E5"/>
<path d="M0.727273 0H8L7.27273 1.45455H4.90182C5.25091 1.87636 5.51273 2.37091 5.66545 2.90909H8L7.27273 4.36364H5.81818C5.72805 5.27036 5.33421 6.12004 4.70055 6.77484C4.06687 7.4296 3.23056 7.85113 2.32727 7.97091V8H1.81818L6.18182 13.0909H4.36364L0 8V6.54545H1.81818C3.09818 6.54545 4.16 5.6 4.33455 4.36364H0L0.727273 2.90909H4.11636C3.70909 2.05091 2.83636 1.45455 1.81818 1.45455H0L0.727273 0Z" fill="#9D9D9D"/>
</svg>
