<svg width="23" height="20" viewBox="0 0 23 20" fill="none" xmlns="http://www.w3.org/2000/svg">
<path d="M21.8101 9.7411L17.498 8.12521V3.282C17.498 2.61243 17.0829 2.01428 16.4535 1.7777L11.9897 0.103783C11.6282 -0.0345944 11.2264 -0.0345944 10.8604 0.103783L6.39661 1.7777C5.76721 2.01428 5.35208 2.61243 5.35208 3.282V8.12521L1.04006 9.7411C0.415132 9.97768 0 10.5758 0 11.2454V16.16C0 16.7671 0.343712 17.3251 0.888294 17.5974L5.35208 19.8293C5.80292 20.0569 6.33858 20.0569 6.78942 19.8293L11.4273 17.5081L16.0652 19.8293C16.516 20.0569 17.0517 20.0569 17.5025 19.8293L21.9663 17.5974C22.5109 17.3251 22.8546 16.7671 22.8546 16.16V11.2454C22.8546 10.5758 22.4395 9.97768 21.8101 9.7411V9.7411ZM15.9804 8.16092L12.1861 9.58487V6.54056L15.9804 4.88896V8.16092ZM6.87423 3.21951L11.4273 1.51434L15.9804 3.21951V3.24629L11.4273 5.0943L6.87423 3.24629V3.21951ZM10.6238 16.2136L6.82959 18.1107V14.5798L10.6238 12.8479V16.2136ZM10.6238 11.2142L6.07075 13.0622L1.51769 11.2142V11.1874L6.07075 9.4822L10.6238 11.1874V11.2142ZM21.3369 16.2136L17.5427 18.1107V14.5798L21.3369 12.8479V16.2136ZM21.3369 11.2142L16.7838 13.0622L12.2308 11.2142V11.1874L16.7838 9.4822L21.3369 11.1874V11.2142Z" fill="#130F26"/>
</svg>
