<svg width="25" height="24" viewBox="0 0 25 24" fill="none" xmlns="http://www.w3.org/2000/svg">
<circle cx="12.1125" cy="11.9083" r="6.34768" transform="rotate(0.33686 12.1125 11.9083)" fill="#130F26"/>
<circle cx="12.0719" cy="1.39307" r="1" transform="rotate(0.33686 12.0719 1.39307)" stroke="#130F26" stroke-width="0.769897"/>
<mask id="path-3-inside-1_1570_1038" fill="white">
<path d="M11.833 2.755L12.0638 2.76804L12.2946 2.75772L12.277 5.75839L11.8154 5.75568L11.833 2.755Z"/>
</mask>
<path d="M11.833 2.755L11.8894 1.7566L10.8392 1.69728L10.833 2.74913L11.833 2.755ZM12.2946 2.75772L13.2946 2.7636L13.3008 1.71175L12.25 1.75872L12.2946 2.75772ZM12.277 5.75839L12.2711 6.75837L13.2711 6.76425L13.277 5.76427L12.277 5.75839ZM11.8154 5.75568L10.8154 5.7498L10.8095 6.74978L11.8095 6.75566L11.8154 5.75568ZM12.0638 2.76804L12.0074 3.76645L12.0579 3.7693L12.1084 3.76704L12.0638 2.76804ZM11.2947 2.75184L11.277 5.75251L13.277 5.76427L13.2946 2.7636L11.2947 2.75184ZM12.2829 4.75841L11.8212 4.75569L11.8095 6.75566L12.2711 6.75837L12.2829 4.75841ZM12.8153 5.76155L12.833 2.76088L10.833 2.74913L10.8154 5.7498L12.8153 5.76155ZM11.7766 3.75341L12.0074 3.76645L12.1201 1.76963L11.8894 1.7566L11.7766 3.75341ZM12.1084 3.76704L12.3393 3.75672L12.25 1.75872L12.0191 1.76903L12.1084 3.76704Z" fill="#130F26" mask="url(#path-3-inside-1_1570_1038)"/>
<circle cx="19.901" cy="4.80797" r="1" transform="rotate(47.3101 19.901 4.80797)" stroke="#130F26" stroke-width="0.769897"/>
<mask id="path-6-inside-2_1570_1038" fill="white">
<path d="M18.7424 5.56262L18.8904 5.7402L19.0554 5.90195L16.8498 7.93653L16.5368 7.5972L18.7424 5.56262Z"/>
</mask>
<path d="M18.7424 5.56262L19.5108 4.92259L18.8376 4.11439L18.0644 4.82759L18.7424 5.56262ZM19.0554 5.90195L19.7335 6.63698L20.5066 5.92379L19.7553 5.18765L19.0554 5.90195ZM16.8498 7.93653L16.1148 8.61456L16.7928 9.34959L17.5278 8.67156L16.8498 7.93653ZM16.5368 7.5972L15.8588 6.86217L15.1237 7.5402L15.8018 8.27523L16.5368 7.5972ZM18.8904 5.7402L18.122 6.38023L18.1544 6.4191L18.1905 6.4545L18.8904 5.7402ZM18.3774 5.16692L16.1718 7.20149L17.5278 8.67156L19.7335 6.63698L18.3774 5.16692ZM17.5848 7.2585L17.2718 6.91917L15.8018 8.27523L16.1148 8.61456L17.5848 7.2585ZM17.2148 8.33224L19.4205 6.29766L18.0644 4.82759L15.8588 6.86217L17.2148 8.33224ZM17.9741 6.20265L18.122 6.38023L19.6587 5.10017L19.5108 4.92259L17.9741 6.20265ZM18.1905 6.4545L18.3556 6.61625L19.7553 5.18765L19.5902 5.02591L18.1905 6.4545Z" fill="#130F26" mask="url(#path-6-inside-2_1570_1038)"/>
<circle cx="4.46445" cy="19.3615" r="1" transform="rotate(-132.69 4.46445 19.3615)" stroke="#130F26" stroke-width="0.769897"/>
<mask id="path-9-inside-3_1570_1038" fill="white">
<path d="M5.62305 18.6068L5.47512 18.4292L5.31003 18.2675L7.51567 16.2329L7.82868 16.5722L5.62305 18.6068Z"/>
</mask>
<path d="M5.62305 18.6068L4.8547 19.2468L5.52792 20.055L6.30108 19.3418L5.62305 18.6068ZM5.31003 18.2675L4.63201 17.5324L3.85885 18.2456L4.61019 18.9818L5.31003 18.2675ZM7.51567 16.2329L8.2507 15.5549L7.57267 14.8198L6.83764 15.4979L7.51567 16.2329ZM7.82868 16.5722L8.50671 17.3073L9.24175 16.6292L8.56372 15.8942L7.82868 16.5722ZM5.47512 18.4292L6.24347 17.7892L6.2111 17.7503L6.17497 17.7149L5.47512 18.4292ZM5.98806 19.0025L8.1937 16.9679L6.83764 15.4979L4.63201 17.5324L5.98806 19.0025ZM6.78063 16.9109L7.09365 17.2503L8.56372 15.8942L8.2507 15.5549L6.78063 16.9109ZM7.15065 15.8372L4.94502 17.8718L6.30108 19.3418L8.50671 17.3073L7.15065 15.8372ZM6.3914 17.9668L6.24347 17.7892L4.70677 19.0693L4.8547 19.2468L6.3914 17.9668ZM6.17497 17.7149L6.00988 17.5532L4.61019 18.9818L4.77528 19.1435L6.17497 17.7149Z" fill="#130F26" mask="url(#path-9-inside-3_1570_1038)"/>
<circle cx="22.8379" cy="11.8424" r="1" transform="rotate(90.3369 22.8379 11.8424)" stroke="#130F26" stroke-width="0.769897"/>
<mask id="path-12-inside-4_1570_1038" fill="white">
<path d="M21.4758 11.6035L21.4628 11.8343L21.4731 12.0652L18.4724 12.0475L18.4752 11.5859L21.4758 11.6035Z"/>
</mask>
<path d="M21.4758 11.6035L22.4742 11.6599L22.5336 10.6097L21.4817 10.6035L21.4758 11.6035ZM21.4731 12.0652L21.4672 13.0651L22.5191 13.0713L22.4721 12.0205L21.4731 12.0652ZM18.4724 12.0475L17.4725 12.0416L17.4666 13.0416L18.4666 13.0475L18.4724 12.0475ZM18.4752 11.5859L18.481 10.5859L17.4811 10.58L17.4752 11.58L18.4752 11.5859ZM21.4628 11.8343L20.4644 11.7779L20.4615 11.8284L20.4638 11.8789L21.4628 11.8343ZM21.479 11.0652L18.4783 11.0475L18.4666 13.0475L21.4672 13.0651L21.479 11.0652ZM19.4724 12.0534L19.4751 11.5918L17.4752 11.58L17.4725 12.0416L19.4724 12.0534ZM18.4693 12.5859L21.47 12.6035L21.4817 10.6035L18.481 10.5859L18.4693 12.5859ZM20.4774 11.5471L20.4644 11.7779L22.4612 11.8907L22.4742 11.6599L20.4774 11.5471ZM20.4638 11.8789L20.4741 12.1098L22.4721 12.0205L22.4618 11.7896L20.4638 11.8789Z" fill="#130F26" mask="url(#path-12-inside-4_1570_1038)"/>
<circle cx="1.39307" cy="11.7176" r="1" transform="rotate(-89.6631 1.39307 11.7176)" stroke="#130F26" stroke-width="0.769897"/>
<mask id="path-15-inside-5_1570_1038" fill="white">
<path d="M2.75488 11.9564L2.76792 11.7257L2.7576 11.4948L5.75827 11.5124L5.75555 11.9741L2.75488 11.9564Z"/>
</mask>
<path d="M2.75488 11.9564L1.75647 11.9L1.69716 12.9502L2.749 12.9564L2.75488 11.9564ZM2.7576 11.4948L2.76348 10.4948L1.71163 10.4886L1.75859 11.5394L2.7576 11.4948ZM5.75827 11.5124L6.75825 11.5183L6.76413 10.5183L5.76415 10.5124L5.75827 11.5124ZM5.75555 11.9741L5.74967 12.974L6.74966 12.9799L6.75554 11.9799L5.75555 11.9741ZM2.76792 11.7257L3.76632 11.7821L3.76918 11.7316L3.76692 11.681L2.76792 11.7257ZM2.75172 12.4948L5.75239 12.5124L5.76415 10.5124L2.76348 10.4948L2.75172 12.4948ZM4.75828 11.5065L4.75557 11.9682L6.75554 11.9799L6.75825 11.5183L4.75828 11.5065ZM5.76143 10.9741L2.76076 10.9564L2.749 12.9564L5.74967 12.974L5.76143 10.9741ZM3.75329 12.0128L3.76632 11.7821L1.76951 11.6693L1.75647 11.9L3.75329 12.0128ZM3.76692 11.681L3.7566 11.4501L1.75859 11.5394L1.76891 11.7703L3.76692 11.681Z" fill="#130F26" mask="url(#path-15-inside-5_1570_1038)"/>
<circle cx="11.9472" cy="22.6069" r="1" transform="rotate(-179.663 11.9472 22.6069)" stroke="#130F26" stroke-width="0.769897"/>
<mask id="path-18-inside-6_1570_1038" fill="white">
<path d="M12.186 21.245L11.9553 21.232L11.7244 21.2423L11.742 18.2416L12.2037 18.2443L12.186 21.245Z"/>
</mask>
<path d="M12.186 21.245L12.1296 22.2434L13.1798 22.3027L13.186 21.2509L12.186 21.245ZM11.7244 21.2423L10.7244 21.2364L10.7182 22.2882L11.769 22.2413L11.7244 21.2423ZM11.742 18.2416L11.7479 17.2416L10.7479 17.2357L10.7421 18.2357L11.742 18.2416ZM12.2037 18.2443L13.2037 18.2502L13.2095 17.2502L12.2096 17.2443L12.2037 18.2443ZM11.9553 21.232L12.0117 20.2336L11.9612 20.2307L11.9106 20.233L11.9553 21.232ZM12.7244 21.2482L12.742 18.2475L10.7421 18.2357L10.7244 21.2364L12.7244 21.2482ZM11.7362 19.2416L12.1978 19.2443L12.2096 17.2443L11.7479 17.2416L11.7362 19.2416ZM11.2037 18.2384L11.1861 21.2391L13.186 21.2509L13.2037 18.2502L11.2037 18.2384ZM12.2424 20.2466L12.0117 20.2336L11.8989 22.2304L12.1296 22.2434L12.2424 20.2466ZM11.9106 20.233L11.6797 20.2433L11.769 22.2413L11.9999 22.231L11.9106 20.233Z" fill="#130F26" mask="url(#path-18-inside-6_1570_1038)"/>
<circle cx="4.77044" cy="4.06285" r="1" transform="rotate(-42.6502 4.77044 4.06285)" stroke="#130F26" stroke-width="0.769897"/>
<mask id="path-21-inside-7_1570_1038" fill="white">
<path d="M5.52441 5.22192L5.7021 5.07412L5.86396 4.90915L7.89701 7.11619L7.55747 7.42897L5.52441 5.22192Z"/>
</mask>
<path d="M5.52441 5.22192L4.88492 4.45313L4.07625 5.1258L4.78891 5.89944L5.52441 5.22192ZM5.86396 4.90915L6.59946 4.23163L5.8868 3.45798L5.15015 4.20881L5.86396 4.90915ZM7.89701 7.11619L8.57453 7.85169L9.31003 7.17417L8.63251 6.43867L7.89701 7.11619ZM7.55747 7.42897L6.82196 8.10649L7.49948 8.84199L8.23499 8.16447L7.55747 7.42897ZM5.7021 5.07412L6.3416 5.84291L6.38048 5.81057L6.41591 5.77446L5.7021 5.07412ZM5.12846 5.58667L7.16151 7.79371L8.63251 6.43867L6.59946 4.23163L5.12846 5.58667ZM7.21949 6.38069L6.87994 6.69346L8.23499 8.16447L8.57453 7.85169L7.21949 6.38069ZM8.29297 6.75145L6.25992 4.5444L4.78891 5.89944L6.82196 8.10649L8.29297 6.75145ZM6.16391 5.99072L6.3416 5.84291L5.0626 4.30533L4.88492 4.45313L6.16391 5.99072ZM6.41591 5.77446L6.57777 5.60948L5.15015 4.20881L4.98828 4.37379L6.41591 5.77446Z" fill="#130F26" mask="url(#path-21-inside-7_1570_1038)"/>
<circle cx="19.2999" cy="19.8357" r="1" transform="rotate(137.35 19.2999 19.8357)" stroke="#130F26" stroke-width="0.769897"/>
<mask id="path-24-inside-8_1570_1038" fill="white">
<path d="M18.5459 18.6766L18.3682 18.8244L18.2064 18.9894L16.1733 16.7824L16.5128 16.4696L18.5459 18.6766Z"/>
</mask>
<path d="M18.5459 18.6766L19.1854 19.4454L19.9941 18.7728L19.2814 17.9991L18.5459 18.6766ZM18.2064 18.9894L17.4708 19.6669L18.1835 20.4406L18.9202 19.6897L18.2064 18.9894ZM16.1733 16.7824L15.4958 16.0469L14.7603 16.7244L15.4378 17.4599L16.1733 16.7824ZM16.5128 16.4696L17.2484 15.7921L16.5708 15.0566L15.8353 15.7341L16.5128 16.4696ZM18.3682 18.8244L17.7287 18.0556L17.6898 18.088L17.6544 18.1241L18.3682 18.8244ZM18.9419 18.3119L16.9088 16.1048L15.4378 17.4599L17.4708 19.6669L18.9419 18.3119ZM16.8508 17.5179L17.1904 17.2051L15.8353 15.7341L15.4958 16.0469L16.8508 17.5179ZM15.7773 17.1471L17.8104 19.3542L19.2814 17.9991L17.2484 15.7921L15.7773 17.1471ZM17.9064 17.9078L17.7287 18.0556L19.0077 19.5932L19.1854 19.4454L17.9064 17.9078ZM17.6544 18.1241L17.4925 18.2891L18.9202 19.6897L19.082 19.5248L17.6544 18.1241Z" fill="#130F26" mask="url(#path-24-inside-8_1570_1038)"/>
<path d="M15.6344 11.4098L14.125 10.8441V9.14883C14.125 8.91445 13.9797 8.70508 13.7594 8.62227L12.1969 8.03633C12.0703 7.98789 11.9297 7.98789 11.8016 8.03633L10.2391 8.62227C10.0187 8.70508 9.87344 8.91445 9.87344 9.14883V10.8441L8.36406 11.4098C8.14531 11.4926 8 11.702 8 11.9363V13.6566C8 13.8691 8.12031 14.0645 8.31094 14.1598L9.87344 14.941C10.0313 15.0207 10.2188 15.0207 10.3766 14.941L12 14.1285L13.6234 14.941C13.7812 15.0207 13.9687 15.0207 14.1266 14.941L15.6891 14.1598C15.8797 14.0645 16 13.8691 16 13.6566V11.9363C16 11.702 15.8547 11.4926 15.6344 11.4098ZM13.5937 10.8566L12.2656 11.3551V10.2895L13.5937 9.71133V10.8566ZM10.4062 9.12695L12 8.53008L13.5937 9.12695V9.13633L12 9.7832L10.4062 9.13633V9.12695ZM11.7187 13.6754L10.3906 14.3395V13.1035L11.7187 12.4973V13.6754ZM11.7187 11.9254L10.125 12.5723L8.53125 11.9254V11.916L10.125 11.3191L11.7187 11.916V11.9254ZM15.4688 13.6754L14.1406 14.3395V13.1035L15.4688 12.4973V13.6754ZM15.4688 11.9254L13.875 12.5723L12.2812 11.9254V11.916L13.875 11.3191L15.4688 11.916V11.9254Z" fill="white"/>
</svg>
