<svg width="20" height="20" viewBox="0 0 20 20" fill="none" xmlns="http://www.w3.org/2000/svg">
<path opacity="0.4" d="M14.0756 0H17.4616C18.8639 0 20.0001 1.14585 20.0001 2.55996V5.97452C20.0001 7.38864 18.8639 8.53449 17.4616 8.53449H14.0756C12.6734 8.53449 11.5371 7.38864 11.5371 5.97452V2.55996C11.5371 1.14585 12.6734 0 14.0756 0" fill="#130F26"/>
<path d="M2.53852 0H5.92449C7.32676 0 8.46301 1.14585 8.46301 2.55996V5.97452C8.46301 7.38864 7.32676 8.53449 5.92449 8.53449H2.53852C1.13626 8.53449 0 7.38864 0 5.97452V2.55996C0 1.14585 1.13626 0 2.53852 0" fill="#130F26"/>
<path d="M2.53852 11.4656H5.92449C7.32676 11.4656 8.46301 12.6114 8.46301 14.0255V17.4401C8.46301 18.8533 7.32676 20.0001 5.92449 20.0001H2.53852C1.13626 20.0001 0 18.8533 0 17.4401V14.0255C0 12.6114 1.13626 11.4656 2.53852 11.4656" fill="#130F26"/>
<path d="M14.0756 11.4656H17.4616C18.8639 11.4656 20.0001 12.6114 20.0001 14.0255V17.4401C20.0001 18.8533 18.8639 20.0001 17.4616 20.0001H14.0756C12.6734 20.0001 11.5371 18.8533 11.5371 17.4401V14.0255C11.5371 12.6114 12.6734 11.4656 14.0756 11.4656" fill="#130F26"/>
</svg>
