<svg width="21" height="24" viewBox="0 0 21 24" fill="none" xmlns="http://www.w3.org/2000/svg">
<path d="M2.7 0C1.98392 0 1.29716 0.284463 0.790812 0.790812C0.284464 1.29716 0 1.98392 0 2.7V21.3C0 22.0161 0.284464 22.7028 0.790812 23.2092C1.29716 23.7155 1.98392 24 2.7 24H11.7C12.4117 24 13.0947 23.719 13.6003 23.2181C14.106 22.7172 14.3934 22.0369 14.4 21.3252V19.5012C14.4 19.2625 14.3052 19.0336 14.1364 18.8648C13.9676 18.696 13.7387 18.6012 13.5 18.6012C12.9552 18.6012 12.612 18.4536 12.3756 18.2628C12.126 18.0624 11.9196 17.7528 11.7636 17.316C11.436 16.41 11.4 15.216 11.4 14.1C11.4 13.8719 11.3133 13.6523 11.1576 13.4856L10.9608 13.2732C10.8961 13.2008 10.828 13.1316 10.7568 13.0656C10.668 12.9816 10.3968 12.7236 9.336 11.664C8.7744 11.1012 8.4624 10.626 8.3604 10.2624C8.3195 10.1364 8.31328 10.0017 8.3424 9.8724C8.38717 9.72331 8.47181 9.58929 8.5872 9.4848C8.69128 9.3695 8.82489 9.28485 8.9736 9.24C9.10257 9.21131 9.23689 9.21794 9.3624 9.2592C9.726 9.3612 10.2012 9.6744 10.764 10.2372C11.412 10.8852 12.0264 11.4924 12.5772 12.0372C13.4892 12.9396 14.226 13.6692 14.6412 14.1132C14.804 14.2879 15.0295 14.3908 15.2682 14.3993C15.5068 14.4077 15.7391 14.321 15.9138 14.1582C16.0885 13.9954 16.1914 13.7699 16.1999 13.5312C16.2083 13.2926 16.1216 13.0603 15.9588 12.8856C15.4476 12.3513 14.9276 11.8257 14.3988 11.3088V7.272L17.8092 10.6824C18.3156 11.1888 18.6 11.8752 18.6 12.5904V23.1C18.6 23.3387 18.6948 23.5676 18.8636 23.7364C19.0324 23.9052 19.2613 24 19.5 24C19.7387 24 19.9676 23.9052 20.1364 23.7364C20.3052 23.5676 20.4 23.3387 20.4 23.1V12.5916C20.4001 12.0006 20.2838 11.4154 20.0577 10.8693C19.8317 10.3233 19.5002 9.82715 19.0824 9.4092L14.4 4.7268V2.6988C14.3997 1.98292 14.1151 1.29648 13.6088 0.790387C13.1025 0.284299 12.4159 -7.07039e-08 11.7 0H2.7ZM10.0704 17.928C10.1856 18.2496 10.3356 18.5688 10.53 18.8664C10.0717 19.0868 9.68489 19.4321 9.41421 19.8627C9.14353 20.2932 8.99995 20.7914 9 21.3V22.2H5.4V21.3C5.4 20.5839 5.11554 19.8972 4.60919 19.3908C4.10284 18.8845 3.41608 18.6 2.7 18.6H1.8V5.4H2.7C3.41608 5.4 4.10284 5.11554 4.60919 4.60919C5.11554 4.10284 5.4 3.41608 5.4 2.7V1.8H9V2.7C9 3.41608 9.28446 4.10284 9.79081 4.60919C10.2972 5.11554 10.9839 5.4 11.7 5.4H12.6V9.5256L12.036 8.964C11.4 8.3268 10.6584 7.7544 9.852 7.5264C9.42093 7.39874 8.96361 7.38838 8.5272 7.4964C8.25645 7.56654 7.9996 7.68219 7.7676 7.8384C7.08915 7.74586 6.39836 7.8206 5.7554 8.05611C5.11244 8.29162 4.53681 8.68076 4.07866 9.18964C3.6205 9.69851 3.29371 10.3117 3.12674 10.9758C2.95978 11.6398 2.95771 12.3346 3.12071 12.9997C3.28371 13.6647 3.60685 14.2798 4.06196 14.7914C4.51708 15.303 5.09038 15.6956 5.73192 15.9349C6.37346 16.1743 7.06379 16.2531 7.74278 16.1646C8.42178 16.0761 9.06883 15.823 9.6276 15.4272C9.6732 16.248 9.7848 17.1396 10.0704 17.928V17.928ZM4.8 12C4.79982 11.4774 4.97025 10.969 5.28538 10.552C5.60052 10.1351 6.04314 9.83242 6.546 9.69C6.49972 10.045 6.52751 10.4058 6.6276 10.7496C6.8556 11.5572 7.4256 12.2988 8.064 12.9372L8.862 13.7316C8.52256 14.0574 8.09484 14.2763 7.63201 14.361C7.16919 14.4457 6.69167 14.3925 6.25885 14.208C5.82602 14.0235 5.45698 13.7158 5.1976 13.3232C4.93823 12.9307 4.79996 12.4705 4.8 12ZM1.8 2.7C1.8 2.46131 1.89482 2.23239 2.0636 2.0636C2.23239 1.89482 2.46131 1.8 2.7 1.8H3.6V2.7C3.6 2.93869 3.50518 3.16761 3.3364 3.3364C3.16761 3.50518 2.93869 3.6 2.7 3.6H1.8V2.7ZM10.8 1.8H11.7C11.9387 1.8 12.1676 1.89482 12.3364 2.0636C12.5052 2.23239 12.6 2.46131 12.6 2.7V3.6H11.7C11.4613 3.6 11.2324 3.50518 11.0636 3.3364C10.8948 3.16761 10.8 2.93869 10.8 2.7V1.8ZM12.6 20.4V21.3C12.6 21.5387 12.5052 21.7676 12.3364 21.9364C12.1676 22.1052 11.9387 22.2 11.7 22.2H10.8V21.3C10.8 21.0613 10.8948 20.8324 11.0636 20.6636C11.2324 20.4948 11.4613 20.4 11.7 20.4H12.6ZM3.6 22.2H2.7C2.46131 22.2 2.23239 22.1052 2.0636 21.9364C1.89482 21.7676 1.8 21.5387 1.8 21.3V20.4H2.7C2.93869 20.4 3.16761 20.4948 3.3364 20.6636C3.50518 20.8324 3.6 21.0613 3.6 21.3V22.2Z" fill="#130F26"/>
</svg>
