<svg width="20" height="21" viewBox="0 0 20 21" fill="none" xmlns="http://www.w3.org/2000/svg">
<path d="M19.6944 16.9543C19.6485 16.7915 19.5412 16.6528 19.395 16.5676C19.2489 16.4824 19.0754 16.4572 18.9111 16.4974L17.2857 16.9347C18.1751 15.6236 18.7144 14.1069 18.8523 12.5286C18.9857 11.052 18.7698 9.56475 18.2221 8.187C17.6744 6.80926 16.8103 5.57969 15.6995 4.59763C15.5711 4.49143 15.407 4.43836 15.2407 4.44928C15.0745 4.4602 14.9187 4.5343 14.8053 4.65638C14.6912 4.78629 14.6333 4.95616 14.6443 5.12872C14.6553 5.30127 14.7343 5.46241 14.864 5.57676C15.8211 6.42158 16.5657 7.48 17.0375 8.66625C17.5093 9.85249 17.6949 11.1332 17.5795 12.4046C17.4677 13.7437 17.0185 15.0327 16.274 16.1514L16.1108 14.513C16.1231 14.4166 16.1137 14.3186 16.0833 14.2263C16.0529 14.1339 16.0023 14.0496 15.9351 13.9793C15.868 13.909 15.7859 13.8547 15.6951 13.8201C15.6042 13.7856 15.5068 13.7718 15.4099 13.7798C15.313 13.7877 15.2191 13.8172 15.1351 13.8661C15.0511 13.9149 14.979 13.982 14.9242 14.0622C14.8694 14.1425 14.8332 14.234 14.8183 14.3301C14.8033 14.4261 14.81 14.5243 14.8379 14.6174L15.1643 18.8212L19.244 17.7376C19.4056 17.6903 19.5427 17.5824 19.6266 17.4365C19.7106 17.2905 19.7348 17.1177 19.6944 16.9543V16.9543Z" fill="#130F26"/>
<path d="M0.647035 10.949C0.733791 11.0048 0.831922 11.0405 0.934247 11.0534C1.1046 11.0758 1.2769 11.0301 1.41377 10.9262C1.55063 10.8223 1.64102 10.6687 1.66533 10.4986C1.93505 8.50712 2.94712 6.69106 4.49888 5.41407C6.05064 4.13708 8.02753 3.49343 10.0337 3.61201L8.57149 4.61073C8.46804 4.68866 8.39011 4.79562 8.34762 4.91798C8.30514 5.04035 8.30001 5.17258 8.33291 5.29786C8.36581 5.42315 8.43523 5.53581 8.53235 5.62152C8.62947 5.70722 8.74989 5.7621 8.87829 5.77916C9.02535 5.7926 9.17262 5.75578 9.29605 5.67472L12.7752 3.28563L9.79867 0.296009C9.74571 0.214846 9.67533 0.146497 9.59265 0.0959224C9.50998 0.0453483 9.41708 0.0138186 9.3207 0.00362249C9.22432 -0.00657363 9.12688 0.00481966 9.03545 0.0369752C8.94403 0.0691308 8.86091 0.121242 8.79213 0.189525C8.72335 0.257808 8.67064 0.340549 8.63783 0.431742C8.60501 0.522934 8.59292 0.62029 8.60242 0.71674C8.61192 0.813191 8.64277 0.906315 8.69275 0.989354C8.74273 1.07239 8.81057 1.14326 8.89134 1.19681L10.001 2.3065C7.68429 2.19572 5.4102 2.95753 3.6277 4.44154C1.8452 5.92554 0.683838 8.02389 0.372877 10.3223C0.356141 10.4419 0.372905 10.5638 0.421306 10.6744C0.469707 10.7851 0.547847 10.8801 0.647035 10.949V10.949Z" fill="#130F26"/>
<path d="M12.0181 19.3369C10.9988 19.6625 9.92355 19.7758 8.85875 19.6698C7.56196 19.5427 6.31559 19.1019 5.22724 18.3854C4.1389 17.669 3.24128 16.6984 2.61188 15.5575L4.23724 16.1645C4.38707 16.1905 4.54126 16.1634 4.67322 16.0878C4.80517 16.0122 4.9066 15.893 4.95999 15.7506C5.01338 15.6082 5.01539 15.4516 4.96567 15.3079C4.91594 15.1642 4.81761 15.0424 4.68764 14.9635L1.69149 13.8538L0.731941 13.5078L0.00738147 17.6528C-0.0177374 17.8184 0.0217881 17.9874 0.117777 18.1247C0.213767 18.262 0.358871 18.3571 0.523059 18.3904H0.634027C0.78766 18.3932 0.937354 18.3417 1.05676 18.245C1.17616 18.1483 1.25761 18.0126 1.28678 17.8617L1.56094 16.2951C2.29922 17.5884 3.33622 18.6863 4.58534 19.497C5.83445 20.3078 7.25942 20.808 8.74126 20.9558C9.98016 21.0785 11.2311 20.9452 12.4163 20.5641C12.5672 20.5016 12.6892 20.3848 12.7582 20.2368C12.8272 20.0887 12.8382 19.9202 12.789 19.7644C12.7398 19.6087 12.634 19.477 12.4925 19.3955C12.351 19.3139 12.184 19.2884 12.0246 19.3239L12.0181 19.3369Z" fill="#130F26"/>
<path d="M12.1943 8.28577H6.97221C6.79909 8.28577 6.63306 8.35454 6.51065 8.47695C6.38823 8.59937 6.31946 8.7654 6.31946 8.93852V14.1606C6.31946 14.3337 6.38823 14.4997 6.51065 14.6221C6.63306 14.7446 6.79909 14.8133 6.97221 14.8133H12.1943C12.3674 14.8133 12.5334 14.7446 12.6558 14.6221C12.7782 14.4997 12.847 14.3337 12.847 14.1606V8.93852C12.847 8.7654 12.7782 8.59937 12.6558 8.47695C12.5334 8.35454 12.3674 8.28577 12.1943 8.28577ZM11.5415 13.5078H7.62497V9.59128H11.5415V13.5078Z" fill="#130F26"/>
</svg>
