<svg width="21" height="21" viewBox="0 0 21 21" fill="none" xmlns="http://www.w3.org/2000/svg">
<path d="M1.75 21C1.75 21 0 21 0 19.25C0 17.5 1.75 12.25 10.5 12.25C19.25 12.25 21 17.5 21 19.25C21 21 19.25 21 19.25 21H1.75ZM10.5 10.5C11.8924 10.5 13.2277 9.94688 14.2123 8.96231C15.1969 7.97774 15.75 6.64239 15.75 5.25C15.75 3.85761 15.1969 2.52226 14.2123 1.53769C13.2277 0.553124 11.8924 0 10.5 0C9.10761 0 7.77226 0.553124 6.78769 1.53769C5.80312 2.52226 5.25 3.85761 5.25 5.25C5.25 6.64239 5.80312 7.97774 6.78769 8.96231C7.77226 9.94688 9.10761 10.5 10.5 10.5V10.5Z" fill="#130F26"/>
</svg>
