<svg width="20" height="19" viewBox="0 0 20 19" fill="none" xmlns="http://www.w3.org/2000/svg">
<path d="M12 9L16 5.16M12 1V9V1ZM12 9L8 5.16L12 9Z" stroke="#130F26" stroke-linecap="round" stroke-linejoin="round"/>
<path d="M8.5 19C9.32843 19 10 18.3284 10 17.5C10 16.6716 9.32843 16 8.5 16C7.67157 16 7 16.6716 7 17.5C7 18.3284 7.67157 19 8.5 19Z" fill="#9D9D9D"/>
<path d="M15.5 19C16.3284 19 17 18.3284 17 17.5C17 16.6716 16.3284 16 15.5 16C14.6716 16 14 16.6716 14 17.5C14 18.3284 14.6716 19 15.5 19Z" fill="#9D9D9D"/>
<path d="M15.31 13H8.67L4.18 2.23C4.02776 1.86507 3.77077 1.55344 3.44149 1.33452C3.11221 1.11559 2.72542 0.999181 2.33 1H0V3H2.33L7.08 14.38C7.15502 14.5626 7.28242 14.719 7.44614 14.8293C7.60986 14.9396 7.80257 14.999 8 15H16C16.2014 14.9994 16.398 14.938 16.564 14.8238C16.7299 14.7096 16.8575 14.5479 16.93 14.36L19.76 7H17.62L15.31 13Z" fill="#9D9D9D"/>
</svg>
