<svg width="12" height="18" viewBox="0 0 12 18" fill="none" xmlns="http://www.w3.org/2000/svg">
<path opacity="0.4" d="M6.65933 0.710526V9.18853C6.65933 9.58074 6.34102 9.89905 5.94881 9.89905C5.5566 9.89905 5.23828 9.58074 5.23828 9.18853V0.710526C5.23828 0.318316 5.5566 0 5.94881 0C6.34102 0 6.65933 0.318316 6.65933 0.710526" fill="#49C969"/>
<mask id="mask0_1395_933" style="mask-type:alpha" maskUnits="userSpaceOnUse" x="0" y="8" width="12" height="10">
<path fill-rule="evenodd" clip-rule="evenodd" d="M0.500244 8.47852H11.3966V17.418H0.500244V8.47852Z" fill="white"/>
</mask>
<g mask="url(#mask0_1395_933)">
<path d="M11.3969 9.18904C11.3969 9.32167 11.36 9.45241 11.288 9.56799L6.55019 17.0863C6.41945 17.2928 6.19303 17.4188 5.94861 17.4188C5.70419 17.4188 5.47777 17.2928 5.34703 17.0863L0.609242 9.56799C0.471874 9.34915 0.463347 9.07252 0.589347 8.84609C0.7144 8.61873 0.952189 8.47852 1.21082 8.47852H10.6864C10.945 8.47852 11.1828 8.61873 11.3079 8.84609C11.3676 8.95315 11.3969 9.07157 11.3969 9.18904" fill="#49C969"/>
</g>
</svg>
