<svg width="12" height="18" viewBox="0 0 12 18" fill="none" xmlns="http://www.w3.org/2000/svg">
<path opacity="0.4" d="M4.8097 5.20248L4.48254 1.50325C4.48254 0.673083 5.16218 0 6.00044 0C6.8387 0 7.51834 0.673083 7.51834 1.50325L7.19119 5.20248C7.19119 5.85375 6.65805 6.38174 6.00044 6.38174C5.34173 6.38174 4.8097 5.85375 4.8097 5.20248" fill="#49C969"/>
<path d="M4.86984 17.6247C4.81146 17.5669 4.56471 17.3509 4.35983 17.148C3.07656 15.9644 0.978153 12.8739 0.335965 11.2572C0.233523 11.0117 0.0154213 10.391 0 10.0583C0 9.74082 0.0738021 9.43755 0.219203 9.14846C0.422985 8.78737 0.74463 8.49938 1.12355 8.34011C1.38572 8.23865 2.17331 8.07938 2.18763 8.07938C3.04792 7.9212 4.44685 7.83502 5.99339 7.83502C7.46503 7.83502 8.80668 7.9212 9.68129 8.05102C9.69671 8.0652 10.6738 8.22447 11.0086 8.39792C11.6211 8.71537 12 9.33609 12 10.0005V10.0583C11.9857 10.4914 11.6057 11.4012 11.5924 11.4012C10.9502 12.9317 8.95319 15.9491 7.62585 17.1622C7.62585 17.1622 7.28438 17.5047 7.07178 17.6531C6.76556 17.8844 6.38663 18 6.00771 18C5.58473 18 5.19148 17.8702 4.86984 17.6247" fill="#49C969"/>
</svg>

