<svg width="23" height="24" viewBox="0 0 23 24" fill="none" xmlns="http://www.w3.org/2000/svg">
<path d="M0 14.184L11.05 20.403L20.969 14.853V17.063L11.05 22.662L0.566 16.702L0.000999987 17.01V17.78L11.05 24L22.1 17.782V13.465L21.585 13.156L11.05 19.118L1.183 13.465V11.255L11.05 16.805L22.1 10.587V6.32L21.585 6.012L11.05 11.974L1.697 6.681L11.05 1.388L18.81 5.756L19.478 5.345V4.779L11.05 0L0 6.27V6.99L11.05 13.207L20.969 7.657V9.917L11.05 15.52L0.566 9.56L0.000999987 9.868L0 14.184Z" fill="#130F26"/>
</svg>
