<svg width="18" height="23" viewBox="0 0 18 23" fill="none" xmlns="http://www.w3.org/2000/svg">
<path d="M13.0509 4.53226C12.8903 4.74314 12.82 5.00917 12.8554 5.27188C12.8909 5.53459 13.0292 5.77248 13.2399 5.93326C14.3314 6.76477 15.1545 7.89863 15.6069 9.19397C16.0594 10.4893 16.1214 11.8891 15.785 13.2193C15.4487 14.5495 14.729 15.7517 13.7152 16.6763C12.7015 17.601 11.4384 18.2074 10.0829 18.4203L10.7919 17.7103C10.9741 17.5217 11.0749 17.2691 11.0726 17.0069C11.0703 16.7447 10.9652 16.4938 10.7798 16.3084C10.5943 16.123 10.3435 16.0179 10.0813 16.0156C9.81914 16.0133 9.56653 16.1141 9.37793 16.2963L6.87793 18.7963C6.69046 18.9838 6.58515 19.2381 6.58515 19.5033C6.58515 19.7684 6.69046 20.0227 6.87793 20.2103L9.37793 22.7103C9.56653 22.8924 9.81914 22.9932 10.0813 22.9909C10.3435 22.9887 10.5943 22.8835 10.7798 22.6981C10.9652 22.5127 11.0703 22.2619 11.0726 21.9997C11.0749 21.7375 10.9741 21.4849 10.7919 21.2963L9.94893 20.4543C11.741 20.2638 13.4346 19.5399 14.8106 18.3761C16.1866 17.2122 17.1815 15.6622 17.6666 13.9266C18.1517 12.1909 18.1047 10.3496 17.5315 8.64104C16.9584 6.93246 15.8856 5.43526 14.4519 4.34326C14.241 4.18263 13.975 4.11231 13.7123 4.14775C13.4496 4.18319 13.2117 4.32149 13.0509 4.53226V4.53226ZM11.1209 2.79626L8.62093 0.296259C8.44139 0.115004 8.19936 0.00922634 7.94439 0.000575589C7.68941 -0.00807517 7.44077 0.0810556 7.24935 0.249724C7.05794 0.418393 6.93823 0.653844 6.91473 0.907883C6.89123 1.16192 6.96571 1.41534 7.12293 1.61626L7.20593 1.71026L8.04893 2.55326C6.28681 2.7407 4.61923 3.4441 3.25519 4.57529C1.89116 5.70649 0.891376 7.21515 0.38116 8.91217C-0.129056 10.6092 -0.127003 12.4191 0.387064 14.1149C0.90113 15.8108 1.90434 17.3172 3.27093 18.4453C3.4761 18.6076 3.73672 18.6831 3.99691 18.6555C4.25709 18.628 4.4961 18.4995 4.66267 18.2977C4.82924 18.096 4.91009 17.837 4.8879 17.5763C4.8657 17.3156 4.74222 17.074 4.54393 16.9033C3.50409 16.0446 2.73434 14.9039 2.32716 13.6183C1.91998 12.3327 1.89272 10.9569 2.24863 9.65614C2.60455 8.35541 3.3285 7.18513 4.3335 6.28593C5.3385 5.38674 6.58178 4.79688 7.91393 4.58726L7.20593 5.29626C7.02658 5.47622 6.92246 5.71769 6.9147 5.97164C6.90695 6.22559 6.99615 6.47297 7.16418 6.66354C7.33222 6.8541 7.56648 6.97356 7.81941 6.99766C8.07233 7.02175 8.32494 6.94867 8.52593 6.79326L8.61993 6.71026L11.1199 4.21026C11.2921 4.03807 11.3955 3.80897 11.4108 3.56594C11.4261 3.32291 11.3522 3.08266 11.2029 2.89026L11.1199 2.79626H11.1209Z" fill="#FF7F00"/>
</svg>
