<svg width="10" height="10" viewBox="0 0 10 10" fill="none" xmlns="http://www.w3.org/2000/svg">
<path d="M9.60817 7.71701L6.89059 5.00096L9.60665 2.2849C10.1291 1.76399 10.1291 0.916174 9.60665 0.395265C9.08421 -0.130226 8.23945 -0.128699 7.71701 0.393738L4.99943 3.1098L2.28184 0.390682C1.7594 -0.131754 0.913118 -0.128699 0.390682 0.390682C-0.130227 0.913119 -0.130227 1.76093 0.390682 2.28184L3.1098 5.00096L0.396792 7.71243C-0.125644 8.23487 -0.125644 9.08268 0.396792 9.60206C0.65801 9.86481 0.998663 9.99465 1.34084 9.99465C1.68455 9.99465 2.02521 9.86481 2.28642 9.60359L4.99943 6.89059L7.71854 9.60817C7.97976 9.86939 8.32041 9.99924 8.66259 9.99924C9.00477 9.99924 9.34695 9.86786 9.60817 9.60817C10.1306 9.08574 10.1306 8.23945 9.60817 7.71701" fill="#130F26"/>
</svg>
