<svg width="20" height="20" viewBox="0 0 20 20" fill="none" xmlns="http://www.w3.org/2000/svg">
<path opacity="0.4" d="M19.9998 9.99991C19.9998 15.5239 15.5228 19.9999 9.99976 19.9999C4.47676 19.9999 -0.000244141 15.5239 -0.000244141 9.99991C-0.000244141 4.47791 4.47676 -9.15527e-05 9.99976 -9.15527e-05C15.5228 -9.15527e-05 19.9998 4.47791 19.9998 9.99991" fill="#130F26"/>
<path d="M13.5734 13.8144C13.4424 13.8144 13.3104 13.7804 13.1894 13.7094L9.26344 11.3674C9.03744 11.2314 8.89844 10.9864 8.89844 10.7224V5.67542C8.89844 5.26142 9.23444 4.92542 9.64844 4.92542C10.0624 4.92542 10.3984 5.26142 10.3984 5.67542V10.2964L13.9584 12.4194C14.3134 12.6324 14.4304 13.0924 14.2184 13.4484C14.0774 13.6834 13.8284 13.8144 13.5734 13.8144" fill="#130F26"/>
</svg>
