<svg width="25" height="22" viewBox="0 0 25 22" fill="none" xmlns="http://www.w3.org/2000/svg">
<path d="M17.0686 15.2746V11.6886C17.0684 11.5314 17.0269 11.377 16.9482 11.2409C16.8695 11.1048 16.7565 10.9917 16.6203 10.9131L13.4825 9.12011C13.3462 9.04142 13.1916 9 13.0343 9C12.8769 9 12.7223 9.04142 12.586 9.12011L9.44825 10.9131C9.3121 10.9917 9.19902 11.1048 9.12034 11.2409C9.04166 11.377 9.00016 11.5314 9 11.6886V15.2746C9.00016 15.4318 9.04166 15.5862 9.12034 15.7224C9.19902 15.8585 9.3121 15.9715 9.44825 16.0501L12.586 17.8431C12.7223 17.9218 12.8769 17.9632 13.0343 17.9632C13.1916 17.9632 13.3462 17.9218 13.4825 17.8431L16.6203 16.0501C16.7565 15.9715 16.8695 15.8585 16.9482 15.7224C17.0269 15.5862 17.0684 15.4318 17.0686 15.2746Z" stroke="#130F26" stroke-linecap="round" stroke-linejoin="round"/>
<path d="M9.12109 11.2224L13.0343 13.4861L16.9476 11.2224M13.0343 18V13.4816" stroke="#130F26" stroke-linecap="round" stroke-linejoin="round"/>
<path d="M5.47209 1L1 4.83333L5.47209 9.30555" stroke="#130F26" stroke-linecap="round" stroke-linejoin="round"/>
<path d="M1 4.8335H15.6905C20.0879 4.8335 23.8224 8.4243 23.9938 12.8196C24.175 17.4641 20.3373 21.4446 15.6905 21.4446H4.83231" stroke="#130F26" stroke-linecap="round" stroke-linejoin="round"/>
</svg>
