<svg width="25" height="18" viewBox="0 0 25 18" fill="none" xmlns="http://www.w3.org/2000/svg">
<path d="M20 5L16 8.84M20 13V5V13ZM20 5L24 8.84L20 5Z" stroke="#130F26" stroke-width="1.5" stroke-linecap="round" stroke-linejoin="round"/>
<path d="M1 0H11L10 2H6.74C7.22 2.58 7.58 3.26 7.79 4H11L10 6H8C7.87607 7.24675 7.33454 8.41506 6.46325 9.3154C5.59195 10.2157 4.44202 10.7953 3.2 10.96V11H2.5L8.5 18H6L0 11V9H2.5C4.26 9 5.72 7.7 5.96 6H0L1 4H5.66C5.1 2.82 3.9 2 2.5 2H0L1 0Z" fill="#9D9D9D"/>
</svg>
