<svg width="12" height="18" viewBox="0 0 12 18" fill="none" xmlns="http://www.w3.org/2000/svg">
<path opacity="0.4" d="M7.19043 12.7975L7.51758 16.4967C7.51758 17.3269 6.83794 18 5.99968 18C5.16142 18 4.48178 17.3269 4.48178 16.4967L4.80893 12.7975C4.80893 12.1463 5.34207 11.6183 5.99968 11.6183C6.65839 11.6183 7.19043 12.1463 7.19043 12.7975" fill="#E63946"/>
<path d="M7.13016 0.37534C7.18854 0.433157 7.43529 0.649155 7.64017 0.852061C8.92344 2.03568 11.0218 5.12619 11.664 6.7429C11.7665 6.98835 11.9846 7.60907 12 7.94179C12 8.25924 11.9262 8.56251 11.7808 8.8516C11.577 9.21269 11.2554 9.50068 10.8764 9.65995C10.6143 9.76141 9.82669 9.92068 9.81237 9.92068C8.95208 10.0789 7.55315 10.165 6.00661 10.165C4.53497 10.165 3.19332 10.0789 2.31871 9.94904C2.30329 9.93486 1.32623 9.77559 0.991371 9.60214C0.378924 9.28469 0 8.66397 0 7.99961V7.94179C0.0143198 7.50871 0.394346 6.5989 0.407564 6.5989C1.04975 5.06837 3.04681 2.05096 4.37415 0.837879C4.37415 0.837879 4.71562 0.495338 4.92822 0.346976C5.23444 0.115706 5.61337 7.15256e-05 5.99229 7.15256e-05C6.41527 7.15256e-05 6.80852 0.129888 7.13016 0.37534" fill="#E63946"/>
</svg>
