<svg width="20" height="20" viewBox="0 0 20 20" fill="none" xmlns="http://www.w3.org/2000/svg">
<path d="M8.15275 3.55534C8.20368 3.65901 8.23732 3.77003 8.25239 3.88415L8.53082 8.02407V8.02407L8.66903 10.1049C8.67046 10.3189 8.70403 10.5315 8.76867 10.7359C8.9356 11.1324 9.33716 11.3844 9.77405 11.3668L16.4313 10.9314C16.7196 10.9266 16.998 11.0344 17.2052 11.2311C17.3779 11.395 17.4894 11.6094 17.5246 11.84L17.5364 11.98C17.2609 15.7947 14.4592 18.9765 10.6524 19.7978C6.84555 20.6191 2.94186 18.8841 1.06071 15.5347C0.518387 14.5616 0.17965 13.4921 0.0643819 12.3888C0.0162286 12.0622 -0.00497452 11.7323 0.000979226 11.4024C-0.00496595 7.31255 2.90747 3.77677 6.98433 2.92438C7.47501 2.84798 7.95603 3.10774 8.15275 3.55534Z" fill="#130F26"/>
<path opacity="0.4" d="M10.8701 0.000819186C15.43 0.116827 19.2624 3.39579 20.0001 7.81229L19.993 7.84488V7.84488L19.9729 7.89227L19.9757 8.02236C19.9652 8.19471 19.8987 8.36054 19.784 8.49448C19.6646 8.63401 19.5014 8.72903 19.3217 8.76591L19.2121 8.78095L11.5313 9.27861C11.2758 9.3038 11.0214 9.22142 10.8314 9.05195C10.6731 8.91073 10.5719 8.72009 10.5433 8.51468L10.0277 0.845062C10.0188 0.819129 10.0188 0.791015 10.0277 0.765082C10.0348 0.553672 10.1278 0.35384 10.2861 0.21023C10.4444 0.0666198 10.6547 -0.00880037 10.8701 0.000819186Z" fill="#130F26"/>
</svg>
