<svg width="51" height="21" viewBox="0 0 51 21" fill="none" xmlns="http://www.w3.org/2000/svg">
<path d="M46.9375 5.25H43V0H24.625C23.1812 0 22 1.18125 22 2.625V17.0625H24.625C24.625 19.2412 26.3838 21 28.5625 21C30.7412 21 32.5 19.2412 32.5 17.0625H40.375C40.375 19.2412 42.1338 21 44.3125 21C46.4912 21 48.25 19.2412 48.25 17.0625H50.875V10.5L46.9375 5.25ZM28.5625 19.0312C27.4731 19.0312 26.5938 18.1519 26.5938 17.0625C26.5938 15.9731 27.4731 15.0938 28.5625 15.0938C29.6519 15.0938 30.5312 15.9731 30.5312 17.0625C30.5312 18.1519 29.6519 19.0312 28.5625 19.0312ZM46.2812 7.21875L48.8537 10.5H43V7.21875H46.2812ZM44.3125 19.0312C43.2231 19.0312 42.3438 18.1519 42.3438 17.0625C42.3438 15.9731 43.2231 15.0938 44.3125 15.0938C45.4019 15.0938 46.2812 15.9731 46.2812 17.0625C46.2812 18.1519 45.4019 19.0312 44.3125 19.0312Z" fill="#130F26"/>
<line x1="0.75" y1="5.25" x2="21.25" y2="5.25" stroke="#130F26" stroke-width="1.5" stroke-linecap="round"/>
<line x1="8.9" y1="9.1" x2="17.1" y2="9.1" stroke="#130F26" stroke-width="1.8" stroke-linecap="round"/>
<line x1="12" y1="13" x2="21" y2="13" stroke="#130F26" stroke-width="2" stroke-linecap="round"/>
</svg>
