<svg width="21" height="20" viewBox="0 0 21 20" fill="none" xmlns="http://www.w3.org/2000/svg">
<path d="M18.875 12.5H17V10H8.25C7.56248 10 7 10.5625 7 11.25V18.125H8.25C8.25 19.1625 9.08752 20 10.125 20C11.1625 20 12 19.1625 12 18.125H15.75C15.75 19.1625 16.5875 20 17.625 20C18.6625 20 19.5 19.1625 19.5 18.125H20.75V15L18.875 12.5ZM10.125 19.0625C9.60624 19.0625 9.18752 18.6438 9.18752 18.125C9.18752 17.6062 9.60624 17.1875 10.125 17.1875C10.6438 17.1875 11.0625 17.6062 11.0625 18.125C11.0625 18.6438 10.6438 19.0625 10.125 19.0625ZM18.5625 13.4375L19.7875 15H17V13.4375H18.5625ZM17.625 19.0625C17.1062 19.0625 16.6875 18.6438 16.6875 18.125C16.6875 17.6062 17.1062 17.1875 17.625 17.1875C18.1438 17.1875 18.5625 17.6062 18.5625 18.125C18.5625 18.6438 18.1438 19.0625 17.625 19.0625Z" fill="#9D9D9D"/>
<path d="M6.5 0C2.912 0 0 2.912 0 6.5C0 10.088 2.912 13 6.5 13C10.088 13 13 10.088 13 6.5C13 2.912 10.088 0 6.5 0ZM8.645 9.555L5.85 6.76V2.6H7.15V6.227L9.555 8.632L8.645 9.555Z" fill="#130F26"/>
</svg>
