<svg width="13" height="13" viewBox="0 0 13 13" fill="none" xmlns="http://www.w3.org/2000/svg">
<path d="M11.8957 7.65105H7.71797V11.7926C7.71797 12.4594 7.17267 13 6.5 13C5.82733 13 5.28203 12.4594 5.28203 11.7926V7.65105H1.10426C0.476812 7.58663 0 7.06248 0 6.43715C0 5.81181 0.476812 5.28766 1.10426 5.22325H5.26893V1.09469C5.33391 0.472677 5.86265 0 6.49345 0C7.12426 0 7.65299 0.472677 7.71797 1.09469V5.22325H11.8957C12.5232 5.28766 13 5.81181 13 6.43715C13 7.06248 12.5232 7.58663 11.8957 7.65105Z" fill="#E5E5E5"/>
</svg>
